<svg
  xmlns="http://www.w3.org/2000/svg"
  width="32"
  height="32"
  viewBox="0 0 32 32"
  fill="none"
>
  <path
    d="M32 8C32 3.58172 28.4183 0 24 0H8C3.58172 0 0 3.58172 0 8V24C0 28.4183 3.58172 32 8 32H24C28.4183 32 32 28.4183 32 24V8Z"
    fill="white"
  />
  <path
    d="M24.874 21.4905C24.7287 21.2592 24.5387 21.0592 24.3152 20.9021C24.0917 20.7451 23.8391 20.6342 23.5722 20.5758C22.5512 20.3384 21.6657 19.7064 21.1092 18.818C20.5526 17.9297 20.3704 16.8571 20.6022 15.8348C20.6914 15.4397 20.6618 15.027 20.5171 14.6486C20.3725 14.2703 20.1193 13.9431 19.7893 13.7081C19.4593 13.4732 19.0673 13.341 18.6624 13.3282C18.2576 13.3153 17.858 13.4224 17.5137 13.6359C17.1695 13.8495 16.8961 14.1599 16.7277 14.5284C16.5594 14.8968 16.5037 15.3068 16.5676 15.7067C16.6315 16.1067 16.8122 16.4789 17.0869 16.7766C17.3616 17.0742 17.7182 17.2841 18.1118 17.3797C18.621 17.4946 19.1025 17.7088 19.5288 18.0102C19.955 18.3115 20.3176 18.694 20.5958 19.1357C20.8739 19.5774 21.0621 20.0697 21.1497 20.5843C21.2372 21.0988 21.2223 21.6257 21.1058 22.1345C21.0369 22.4625 21.0491 22.8025 21.1416 23.1246C21.2342 23.4468 21.4041 23.7414 21.6365 23.9829C21.869 24.2244 22.157 24.4053 22.4754 24.51C22.7939 24.6147 23.1331 24.6398 23.4635 24.5834C23.7939 24.5269 24.1054 24.3905 24.3711 24.186C24.6367 23.9815 24.8482 23.7152 24.9873 23.4103C25.1264 23.1053 25.1888 22.7709 25.169 22.4363C25.1493 22.1017 25.048 21.777 24.874 21.4905Z"
    fill="#DD2590"
  />
  <path
    d="M12.2368 19.2021C12.2368 19.2062 12.2391 19.2101 12.2428 19.2121C12.6009 19.406 13.0086 19.4891 13.4141 19.4509C13.822 19.4125 14.209 19.2531 14.5256 18.9933C14.8422 18.7333 15.0739 18.3848 15.191 17.9923C15.3081 17.5998 15.3053 17.1812 15.1828 16.7903C15.0277 16.2919 14.9724 15.7678 15.0202 15.2479C15.068 14.7281 15.2179 14.2228 15.4614 13.761C15.7048 13.2993 16.037 12.8901 16.4389 12.557C16.8408 12.2238 17.3045 11.9733 17.8034 11.8197C18.1904 11.6986 18.5328 11.4656 18.7877 11.1502C19.0425 10.8349 19.1984 10.4511 19.2357 10.0474C19.273 9.64361 19.19 9.23782 18.9973 8.88113C18.8045 8.5244 18.5105 8.23267 18.1523 8.04265C17.7941 7.85264 17.3877 7.77279 16.9843 7.81322C16.5808 7.85362 16.1983 8.01245 15.8849 8.26975C15.5715 8.52702 15.3412 8.87126 15.223 9.25912C15.1048 9.64698 15.1039 10.0611 15.2205 10.4495C15.5266 11.452 15.4231 12.5351 14.9326 13.4615C14.4421 14.3879 13.6046 15.0823 12.6034 15.3927C12.2081 15.5073 11.8563 15.7379 11.5936 16.0547C11.3309 16.3715 11.1693 16.7599 11.1298 17.1695C11.0904 17.5792 11.1748 17.9912 11.3721 18.3524C11.5684 18.7115 11.8673 19.0038 12.2306 19.1919C12.2344 19.1939 12.2368 19.1978 12.2368 19.2021Z"
    fill="#DD2590"
  />
  <path
    d="M17.5259 18.8732C17.2526 18.8828 16.984 18.9468 16.7358 19.0616C16.4875 19.1763 16.2647 19.3393 16.0803 19.5412C15.3648 20.3065 14.3754 20.7574 13.3284 20.7953C12.2814 20.8331 11.262 20.4549 10.4931 19.7433C10.2944 19.5569 10.0607 19.4119 9.80545 19.3166C9.55024 19.2213 9.27862 19.1777 9.00639 19.1884C8.67131 19.2042 8.34517 19.3018 8.05648 19.4726C7.76777 19.6435 7.5253 19.8824 7.35018 20.1685C7.17504 20.4546 7.07262 20.7792 7.0518 21.114C7.03101 21.4488 7.09246 21.7836 7.23082 22.0892C7.36919 22.3948 7.58022 22.6619 7.84555 22.8672C8.11088 23.0724 8.4224 23.2096 8.75294 23.2668C9.08349 23.3239 9.42302 23.2994 9.74186 23.1951C10.0607 23.0909 10.3492 22.9102 10.5822 22.6688C10.9365 22.2852 11.3631 21.9752 11.8374 21.7566C12.3117 21.5381 12.8245 21.4153 13.3464 21.3952C13.8683 21.3752 14.389 21.4583 14.8787 21.6398C15.3684 21.8213 15.8175 22.0977 16.2002 22.453C16.4494 22.6782 16.7499 22.8388 17.0755 22.9209C17.4011 23.003 17.7419 23.0041 18.0681 22.9241C18.3942 22.844 18.6957 22.6853 18.9463 22.4618C19.1969 22.2382 19.3889 21.9567 19.5056 21.6417C19.6222 21.3268 19.6599 20.9881 19.6153 20.6553C19.5708 20.3224 19.4454 20.0056 19.25 19.7324C19.0547 19.4593 18.7954 19.2381 18.4949 19.0883C18.1943 18.9386 17.8616 18.8647 17.5259 18.8732Z"
    fill="#DD2590"
  />
</svg>